<svg width="300" height="238" viewBox="0 0 300 238" fill="none" xmlns="http://www.w3.org/2000/svg">
<g clip-path="url(#clip0_1_188)">
<path d="M186.627 203.934C261.948 203.934 300 192.402 300 111.191C300 27.5438 253.805 0.90686 186.627 0.90686C119.448 0.90686 73.2534 27.7063 73.2534 111.191C73.0968 192.564 111.305 203.934 186.627 203.934Z" fill="#0096FA"/>
<path d="M149.514 202.635C128.531 201.011 109.74 196.139 92.9843 189.479C68.869 179.734 38.0202 164.628 22.9873 151.635C21.4214 150.173 20.6385 148.224 20.7951 146.275C20.9517 144.326 21.8911 142.376 23.7703 141.402L76.5421 119.475C98.9348 107.618 121.171 123.373 144.817 141.727C178.797 167.877 196.805 206.209 149.514 202.635Z" fill="#0096FA"/>
<path d="M300 111.353C300 133.118 296.712 152.933 291.388 170.8C283.715 196.462 272.127 217.739 260.539 234.306C259.286 236.093 257.407 236.905 255.685 236.905C253.805 236.905 251.926 235.931 250.674 234.144L229.064 201.985C216.067 179.733 225.775 146.274 241.591 120.611C264.454 83.5792 300 62.3021 300 111.353Z" fill="#0096FA"/>
<path d="M289.665 176.16C281.679 201.01 269.778 220.988 260.539 234.307C258.034 237.88 253.023 237.718 250.674 234.145L229.064 201.985C258.66 199.224 280.74 190.453 289.665 176.16Z" fill="url(#paint0_linear_1_188)"/>
<path d="M153.586 165.278C156.699 165.278 159.223 162.66 159.223 159.431C159.223 156.201 156.699 153.583 153.586 153.583C150.472 153.583 147.948 156.201 147.948 159.431C147.948 162.66 150.472 165.278 153.586 165.278Z" fill="black"/>
<path d="M219.198 165.278C222.312 165.278 224.836 162.66 224.836 159.431C224.836 156.201 222.312 153.583 219.198 153.583C216.085 153.583 213.561 156.201 213.561 159.431C213.561 162.66 216.085 165.278 219.198 165.278Z" fill="black"/>
<path fill-rule="evenodd" clip-rule="evenodd" d="M24.5847 176.711L7.51611 165.179L13.7162 155.306L30.7847 166.838L24.5847 176.711Z" fill="#0065FF"/>
<path fill-rule="evenodd" clip-rule="evenodd" d="M17.0686 188.893L0 177.361L6.20004 167.488L23.2686 179.02L17.0686 188.893Z" fill="#0065FF"/>
</g>
<defs>
<linearGradient id="paint0_linear_1_188" x1="227.831" y1="196.139" x2="287.124" y2="208.954" gradientUnits="userSpaceOnUse">
<stop offset="0.0105566" stop-color="#0065FF" stop-opacity="0.2"/>
<stop offset="0.5203" stop-color="#0065FF" stop-opacity="0"/>
</linearGradient>
<clipPath id="clip0_1_188">
<rect width="300" height="237" fill="white" transform="translate(0 0.5)"/>
</clipPath>
</defs>
</svg>
